<svg width="1278" height="387" viewBox="0 0 1278 387" fill="none" xmlns="http://www.w3.org/2000/svg">
<g opacity="0.3">
<path d="M0 380.568V326.967L196.302 53.0651H7.50882V0H264.954V53.6011L67.5794 327.503H270.854V380.568H0Z" fill="#171717"/>
<path d="M409.415 387C381.525 387 357.39 380.925 337.009 368.776C316.985 356.626 301.431 339.295 290.347 316.783C279.62 294.27 274.256 268.006 274.256 237.989C274.256 207.972 279.62 181.886 290.347 159.731C301.431 137.219 316.985 119.888 337.009 107.738C357.032 95.2313 380.631 88.9778 407.806 88.9778C433.551 88.9778 456.256 95.0526 475.922 107.202C495.588 118.994 510.784 136.147 521.511 158.659C532.596 181.172 538.138 208.33 538.138 240.133V254.605H333.254C334.685 282.478 342.015 303.382 355.244 317.319C368.832 331.255 387.068 338.223 409.952 338.223C426.757 338.223 440.702 334.292 451.786 326.431C462.871 318.569 470.559 308.028 474.849 294.806L533.847 298.558C526.338 325.001 511.499 346.442 489.331 362.88C467.519 378.96 440.881 387 409.415 387ZM333.254 211.724H478.067C476.28 186.353 468.95 167.593 456.077 155.443C443.563 143.294 427.472 137.219 407.806 137.219C387.425 137.219 370.62 143.651 357.39 156.515C344.518 169.022 336.472 187.425 333.254 211.724Z" fill="#171717"/>
<path d="M579.654 380.568V95.41H631.68L633.289 166.163L626.853 164.019C630.071 148.296 635.613 134.896 643.479 123.819C651.703 112.741 661.715 104.165 673.515 98.09C685.314 92.0152 698.187 88.9778 712.132 88.9778C736.446 88.9778 756.29 95.946 771.666 109.882C787.041 123.461 796.695 142.222 800.628 166.163H791.51C794.729 149.368 800.092 135.432 807.601 124.355C815.467 112.92 825.479 104.165 837.636 98.09C849.793 92.0152 863.559 88.9778 878.935 88.9778C898.958 88.9778 915.942 93.2659 929.887 101.842C944.19 110.061 954.917 122.211 962.068 138.291C969.577 154.371 973.331 174.025 973.331 197.252V380.568H916.479V211.188C916.479 186.532 912.009 167.95 903.07 155.443C894.131 142.936 880.544 136.683 862.308 136.683C850.508 136.683 840.139 139.72 831.2 145.795C822.261 151.87 815.288 160.625 810.283 172.06C805.634 183.494 803.31 197.252 803.31 213.332V380.568H749.139V213.332C749.139 189.033 745.027 170.273 736.803 157.051C728.937 143.472 715.35 136.683 696.041 136.683C683.884 136.683 673.336 139.72 664.397 145.795C655.815 151.87 649.022 160.803 644.016 172.596C639.01 184.03 636.507 197.609 636.507 213.332V380.568H579.654Z" fill="#171717"/>
<path d="M1149.28 387C1121.39 387 1097.25 380.925 1076.87 368.776C1056.85 356.626 1041.29 339.295 1030.21 316.783C1019.48 294.27 1014.12 268.006 1014.12 237.989C1014.12 207.972 1019.48 181.886 1030.21 159.731C1041.29 137.219 1056.85 119.888 1076.87 107.738C1096.89 95.2313 1120.49 88.9778 1147.67 88.9778C1173.41 88.9778 1196.12 95.0526 1215.78 107.202C1235.45 118.994 1250.65 136.147 1261.37 158.659C1272.46 181.172 1278 208.33 1278 240.133V254.605H1073.12C1074.55 282.478 1081.88 303.382 1095.11 317.319C1108.69 331.255 1126.93 338.223 1149.81 338.223C1166.62 338.223 1180.56 334.292 1191.65 326.431C1202.73 318.569 1210.42 308.028 1214.71 294.806L1273.71 298.558C1266.2 325.001 1251.36 346.442 1229.19 362.88C1207.38 378.96 1180.74 387 1149.28 387ZM1073.12 211.724H1217.93C1216.14 186.353 1208.81 167.593 1195.94 155.443C1183.42 143.294 1167.33 137.219 1147.67 137.219C1127.29 137.219 1110.48 143.651 1097.25 156.515C1084.38 169.022 1076.33 187.425 1073.12 211.724Z" fill="#171717"/>
</g>
</svg>
